.
..............................Site Info...........................

 -   http://www.scenetime.com  *_*   

SceneTime is going to Close sign up on march/1, hurry up! get in before the doors are closed.

     We care to share . Join us on  http://www.scenetime.com 

    Be the first to get new release at  http://www.scenetime.com

        Seed back for speed


...................................NFO:.................................................                                                                                                     
       
     
     
       
       
     
     
                                         
                                         
                EXVID                    
                                         
         
                                         
         Filled the Archives             
                                         
         
                                         
                With:                    
                                         
         
                                         
                                    
     E240                           
                                    
     SP               (C) 2009      
                                         
     
     
     
                                                                                  
                                                                                   
              Anastasia.1997.iNTERNAL.DVDRip.XviD-EXViDiNT                          
                                                                                   
                                                                                  
     
                                                                                               
EXViD aims to iNTERNAL those releases which have been lost in the archives.
EXViD aims to PRE non-internal releases which have poor sources and are likely skipped by others. 
http://www.imdb.com/title/tt0118617/
Subtitles: NL, FR, EN, GR
Date: 2011.02

Directors: Don Bluth, Gary Goldman

Genres:
Animation | Adventure | Drama | Family | Musical

Plot:
The daughter of last Russian czar, Anastasia, is found by two young Russian men, Dimitri and
Vladimir, who seek reward that her grandmother Marie promised to the ones who'll find her. But
evil genius of czar family Rasputin, who for some reason survived in this film, still wants
Romanovs family to be destroyed forever.

Cast:
Credited cast:
Meg Ryan  ...  Anastasia (voice)  
John Cusack  ...  Dimitri (voice)  
Kelsey Grammer  ...  Vladimir (voice)  
Christopher Lloyd  ...  Rasputin (voice)  
Hank Azaria  ...  Bartok (voice)  
Bernadette Peters  ...  Sophie (voice)  
Kirsten Dunst  ...  Young Anastasia (voice)  
Angela Lansbury  ...  The Dowager Empress Marie (voice)  
Rick Jones  ...  Czar Nicholas / Servant / Revolutionary Soldier / Ticket Agent (voice)  
Andrea Martin  ...  Phlegmenkoff / Old Woman (voice)  
Glenn Walker Harris Jr.  ...  Young Dimitri (voice)  
Debra Mooney  ...  Actress (voice)  
Arthur Malet  ...  Travelling Man / Major Domo (voice)  
Charity James  ...  Anastasia Impostor (voice)  
Liz Callaway  ...  Anastasia (singing voice)  

Stats:
Format                           : AVI
Format/Info                      : Audio Video Interleave
File size                        : 702 MiB
Duration                         : 1h 30mn
Overall bit rate                 : 1 087 Kbps
Writing application              : Nandub v1.0rc2
Writing library                  : Nandub build 1852/release

Video
ID                               : 0
Format                           : MPEG-4 Visual
Format profile                   : Advanced Simple@L5
Format settings, BVOP            : Yes
Format settings, QPel            : No
Format settings, GMC             : No warppoints
Format settings, Matrix          : Default (H.263)
Muxing mode                      : Packed bitstream
Codec ID                         : XVID
Codec ID/Hint                    : XviD
Duration                         : 1h 30mn
Bit rate                         : 881 Kbps
Width                            : 624 pixels
Height                           : 256 pixels
Display aspect ratio             : 2.40:1
Frame rate                       : 25.000 fps
Color space                      : YUV
Chroma subsampling               : 4:2:0
Bit depth                        : 8 bits
Scan type                        : Progressive
Bits/(Pixel*Frame)               : 0.221
Stream size                      : 569 MiB (81%)
Writing library                  : XviD 1.2.1 (UTC 2008-12-04)

Audio
ID                               : 1
Format                           : MPEG Audio
Format version                   : Version 1
Format profile                   : Layer 3
Mode                             : Joint stereo
Mode extension                   : MS Stereo
Codec ID                         : 55
Codec ID/Hint                    : MP3
Duration                         : 1h 30mn
Bit rate mode                    : Variable
Bit rate                         : 192 Kbps
Channel(s)                       : 2 channels
Sampling rate                    : 48.0 KHz
Stream size                      : 125 MiB (18%)
Alignment                        : Aligned on interleaves
Interleave, duration             : 24 ms (0.60 video frame)
Interleave, preload duration     : 437 ms
Writing library                  : LAME3.90.
Encoding settings                : -m j -V 4 -q 2 -lowpass 19.6 --abr 192




Release notes:
enjoy!

Looking for:
75TB+ Archives
DUTCH/FLEMiSH Archives
                                                                                                    
Greets: CRBS EPiSODE FiCO FLS iLS KLASSiGER LiPSYNC MADE NODLABS RUNNER SPRiNTER      
   

                                                                    ASCII DONE BY XX^NFO 2oo9